<?xml version="1.0" standalone="no"?>
<!DOCTYPE svg PUBLIC "-//W3C//DTD SVG 20010904//EN"
 "http://www.w3.org/TR/2001/REC-SVG-20010904/DTD/svg10.dtd">
<svg version="1.0" xmlns="http://www.w3.org/2000/svg"
 width="2000.000000pt" height="2000.000000pt" viewBox="0 0 2000.000000 2000.000000"
 preserveAspectRatio="xMidYMid meet">

<g transform="translate(0.000000,2000.000000) scale(0.100000,-0.100000)"
fill="#000000" stroke="none">
<path d="M4352 16499 l-434 -791 1 -76 c0 -144 66 -342 161 -483 90 -133 250
-264 396 -323 201 -82 473 -72 665 24 290 146 487 445 506 770 l6 95 258 630
c142 347 287 701 323 788 l65 157 -757 0 -757 -1 -433 -790z"/>
<path d="M7546 17268 c-3 -13 -37 -383 -77 -823 -67 -746 -71 -806 -60 -885
44 -311 242 -587 512 -714 124 -59 185 -71 354 -71 143 1 155 2 244 33 179 62
310 157 422 305 103 137 167 296 188 472 9 76 4 174 -34 670 -16 213 -75 1017
-75 1025 0 6 -265 10 -735 10 l-735 0 -4 -22z"/>
<path d="M10420 17263 c5 -16 111 -367 235 -781 190 -636 226 -765 230 -834
18 -278 144 -532 341 -688 97 -77 161 -113 274 -152 91 -31 102 -32 245 -33
169 0 230 12 354 71 257 121 440 362 502 659 10 50 19 118 19 152 0 68 38 -32
-475 1241 l-159 392 -787 0 -788 0 9 -27z"/>
<path d="M13844 16503 l523 -788 6 -90 c25 -355 247 -671 563 -799 158 -64
381 -74 539 -22 294 95 510 362 570 705 8 46 15 107 15 135 0 29 5 57 11 63 8
8 -152 228 -581 797 l-591 786 -789 0 -789 0 523 -787z"/>
<path d="M11580 12172 l0 -1868 61 -79 c199 -259 295 -451 270 -540 -16 -58
-82 -145 -208 -276 l-123 -126 0 -3492 0 -3491 2685 0 2685 0 0 1373 1 1372
33 -75 c168 -381 472 -738 729 -856 l54 -24 52 -118 51 -117 6 -137 7 -138
-386 0 -387 0 0 -145 0 -145 85 0 c47 0 85 -2 85 -3 0 -2 36 -228 80 -501 44
-273 80 -499 80 -501 0 -3 215 -5 479 -5 l478 0 11 83 c6 45 35 272 64 504
l53 422 60 3 60 3 3 142 3 143 -371 0 -370 0 0 59 0 59 160 164 159 165 70 6
c255 21 512 164 668 372 132 175 206 429 188 645 l-7 85 -172 -175 c-238 -244
-457 -497 -650 -755 -103 -138 -404 -461 -417 -448 -4 4 -8 80 -10 168 -2 179
-8 155 91 370 l56 119 82 42 c124 63 229 144 355 273 278 286 482 633 625
1067 51 152 136 454 130 460 -6 5 -115 -39 -202 -83 -374 -188 -681 -512 -846
-892 -92 -212 -138 -413 -147 -646 l-6 -160 -65 -145 c-36 -80 -69 -149 -75
-155 -6 -7 -7 85 -3 265 10 413 26 650 67 1014 l20 179 95 100 c356 374 571
841 591 1281 10 233 -26 549 -103 886 -39 171 -113 458 -123 478 -8 15 -139
-155 -226 -293 -123 -196 -256 -501 -318 -735 -137 -509 -129 -1078 22 -1549
l37 -117 -23 -194 c-12 -107 -24 -204 -25 -215 -2 -13 -19 10 -51 70 -26 50
-45 96 -42 103 2 6 -130 344 -295 750 -165 405 -319 784 -341 842 -69 172 -62
171 -92 13 -52 -264 -87 -557 -87 -718 0 -393 162 -729 409 -853 125 -63 276
-87 352 -58 11 5 30 -22 78 -111 l62 -118 -10 -145 c-19 -254 -33 -689 -29
-892 2 -109 3 -198 1 -198 -1 0 -19 37 -41 83 -36 78 -39 90 -50 237 -19 241
-59 396 -156 595 -30 61 -83 151 -117 200 -118 167 -349 374 -506 454 l-43 21
0 4245 0 4245 -2685 0 -2685 0 0 -1868z m4870 -1367 l0 -2535 -2150 0 -2150 0
0 2535 0 2535 2150 0 2150 0 0 -2535z"/>
<path d="M13640 12068 l-663 -653 -68 -3 -69 -3 0 -834 0 -835 1425 0 1425 0
0 835 0 835 -53 0 -53 0 -165 168 c-129 130 -716 732 -1069 1095 l-47 49 -663
-654z m1265 -23 c330 -339 602 -620 603 -625 2 -6 -455 -10 -1232 -10 -680 0
-1235 3 -1235 8 1 8 1251 1241 1259 1242 3 0 275 -277 605 -615z m-1216 -1264
c130 -67 162 -241 63 -344 -49 -52 -99 -72 -182 -72 -78 0 -120 15 -168 59
-94 85 -87 255 13 331 74 57 191 68 274 26z m490 -6 c56 -33 76 -68 76 -135 0
-101 -56 -150 -181 -158 l-74 -5 0 -53 0 -54 -65 0 -65 0 0 216 0 216 138 -4
c115 -2 142 -6 171 -23z m471 -25 l0 -50 -105 0 -105 0 0 -35 0 -35 95 0 95 0
0 -45 0 -45 -95 0 -95 0 0 -40 0 -40 110 0 110 0 0 -45 0 -45 -170 0 -170 0 0
215 0 215 165 0 165 0 0 -50z m266 -59 c49 -60 92 -110 97 -110 4 -1 7 49 7
109 l0 111 58 -3 57 -3 3 -212 2 -213 -53 0 -53 0 -90 109 -89 110 -3 -110 -3
-109 -59 0 -60 0 0 215 0 215 49 0 49 0 88 -109z"/>
<path d="M13532 10698 c-43 -12 -72 -59 -72 -119 0 -115 144 -159 207 -63 19
30 22 99 4 132 -24 44 -83 66 -139 50z"/>
<path d="M14000 10640 l0 -60 48 0 c61 0 85 17 85 60 0 43 -24 60 -85 60 l-48
0 0 -60z"/>
<path d="M9645 13174 c-245 -52 -396 -184 -435 -382 -18 -88 5 -272 33 -272 6
0 41 16 78 35 67 35 111 43 138 26 18 -11 41 -3 41 15 0 7 -8 17 -17 22 -13 8
7 22 103 71 65 33 156 81 202 106 l82 46 0 -46 c0 -64 37 -131 119 -218 52
-55 70 -81 76 -112 4 -22 13 -55 21 -74 l15 -35 31 38 c53 65 148 94 208 63
36 -18 70 -74 70 -115 0 -20 -9 -55 -21 -79 -23 -47 -99 -120 -136 -129 l-23
-6 0 -237 c0 -267 2 -274 93 -405 65 -92 64 -90 35 -83 -25 7 -89 -41 -325
-239 -87 -74 -175 -122 -236 -130 -40 -6 -49 -3 -70 18 -30 30 -70 154 -71
217 -1 39 3 47 47 87 57 51 48 54 -58 24 -82 -23 -78 -23 -70 -10 18 28 -142
-16 -196 -54 -19 -14 -77 -48 -129 -76 -161 -88 -403 -259 -653 -461 l-20 -17
22 -43 c58 -112 317 -559 332 -574 3 -3 34 15 69 40 34 26 64 45 66 42 7 -7
-16 -306 -31 -389 -8 -46 -50 -234 -94 -418 -139 -585 -175 -769 -236 -1190
l-42 -295 -2831 -3 -2832 -2 0 -250 0 -250 2801 0 2800 0 -5 -42 c-12 -90 -35
-299 -51 -458 -8 -91 -18 -185 -20 -210 -6 -63 -23 -270 -35 -430 -28 -389
-21 -611 20 -655 17 -18 20 -35 20 -107 0 -151 42 -618 131 -1468 52 -494 175
-1612 185 -1689 l7 -44 266 7 c146 3 283 9 305 13 l39 6 -7 116 c-4 64 -9 564
-12 1111 -2 565 -8 1062 -14 1150 -17 246 -60 694 -76 788 l-5 32 98 0 c54 0
208 7 342 15 135 9 248 12 252 8 11 -12 136 -876 358 -2483 56 -399 104 -745
109 -770 l7 -45 60 -7 c92 -10 542 -14 552 -5 4 5 10 258 12 564 7 1135 -41
1921 -150 2453 -16 80 -40 206 -54 280 l-25 135 8 460 c4 253 7 643 7 868 l0
407 198 0 197 0 0 250 0 250 -214 0 -215 0 -6 48 c-16 113 -67 345 -95 432
-17 52 -53 140 -80 195 l-48 100 -99 66 -99 65 -25 -18 c-29 -22 -133 -36
-143 -20 -4 7 11 25 35 42 49 35 48 35 -31 13 -48 -13 -62 -14 -75 -3 -8 7
-15 18 -15 26 0 7 -10 22 -21 33 l-22 20 32 36 c35 40 37 48 16 65 -21 17 -3
46 37 59 108 34 283 43 322 18 l23 -16 7 61 c3 34 6 111 6 172 0 155 20 273
96 561 100 381 92 360 115 339 17 -15 21 -15 42 -1 25 16 425 346 489 403 l37
33 -78 103 c-162 213 -321 363 -469 441 l-64 34 95 7 c107 7 228 36 296 71
116 59 161 172 100 249 -12 15 -55 49 -97 76 -133 85 -222 193 -282 344 -41
103 -64 206 -100 451 -37 251 -44 282 -82 362 -58 124 -190 192 -293 149 -31
-13 -35 -13 -52 6 -35 40 -102 78 -179 103 -44 14 -110 42 -149 60 -97 48
-173 65 -280 64 -49 -1 -99 -3 -110 -5z"/>
<path d="M9736 12624 c-24 -24 -9 -37 35 -30 25 4 52 1 76 -9 40 -17 63 -14
63 9 0 38 -142 63 -174 30z"/>
<path d="M9346 12499 c12 -14 17 -32 15 -59 -5 -70 65 -88 90 -23 17 44 -5 79
-56 92 -63 16 -71 14 -49 -10z"/>
<path d="M9710 12510 c0 -5 8 -13 17 -19 13 -7 17 -20 14 -51 -4 -64 35 -93
72 -52 17 19 22 68 9 88 -16 24 -112 53 -112 34z"/>
<path d="M9524 12408 c-10 -24 -37 -75 -61 -115 -24 -39 -43 -79 -43 -87 0
-22 97 -42 116 -24 7 8 19 268 12 268 -3 0 -13 -19 -24 -42z"/>
<path d="M10250 12387 c-14 -7 -33 -28 -42 -47 -19 -38 -24 -120 -8 -120 6 0
10 17 10 38 0 45 17 79 51 105 21 15 31 17 47 8 13 -7 23 -7 27 -2 6 11 -25
31 -47 31 -7 0 -24 -6 -38 -13z"/>
<path d="M9778 12125 c-27 -23 -126 -65 -154 -65 -8 0 -17 7 -20 15 -6 14 -44
22 -44 10 0 -15 62 -125 70 -125 14 0 112 47 131 62 25 20 51 77 47 103 l-3
24 -27 -24z"/>
<path d="M7888 12054 c-9 -8 85 -200 97 -199 15 0 8 20 -41 117 -45 90 -47 92
-56 82z"/>
<path d="M7935 11789 c-71 -36 -133 -81 -118 -86 6 -2 35 12 65 31 30 19 71
41 91 50 20 8 37 20 37 25 0 16 -9 13 -75 -20z"/>
<path d="M9970 11772 c-36 -28 -119 -68 -158 -77 -26 -5 -32 -11 -27 -23 4
-10 11 -40 17 -69 l11 -52 42 29 c24 16 61 50 83 76 61 69 85 158 32 116z"/>
<path d="M8330 10513 l-45 -38 0 -78 c0 -42 1 -77 2 -77 1 0 12 10 24 23 37
38 71 122 67 167 l-3 40 -45 -37z"/>
<path d="M11365 9828 c-42 -15 -42 -15 -11 -47 27 -28 28 -28 73 -15 26 8 66
14 90 14 55 0 55 16 1 40 -47 21 -106 24 -153 8z"/>
<path d="M1747 8415 c-24 -76 -122 -481 -146 -602 -87 -432 -99 -757 -40
-1030 75 -347 283 -723 551 -999 l99 -102 19 -159 c42 -354 70 -821 69 -1133
l-1 -185 -25 55 c-13 30 -47 103 -75 162 -31 69 -47 115 -43 127 10 31 -14
296 -36 406 -95 470 -370 881 -768 1147 -138 92 -380 212 -396 196 -13 -13
149 -532 219 -701 211 -507 589 -966 917 -1110 l55 -24 54 -119 c29 -66 64
-143 77 -171 24 -52 24 -57 17 -219 l-7 -166 -144 144 c-80 78 -176 186 -215
238 -101 135 -320 406 -428 530 -145 166 -441 471 -451 464 -12 -7 -11 -237 2
-310 73 -413 398 -719 825 -777 l91 -12 156 -161 157 -162 0 -61 0 -61 -365 0
-365 0 0 -140 0 -140 55 0 c35 0 57 -5 60 -13 3 -6 33 -235 67 -507 l63 -495
480 0 479 0 81 500 80 500 85 5 85 5 3 143 3 142 -392 0 -391 0 7 138 6 137
52 118 51 118 87 45 c246 127 498 422 675 789 84 173 251 681 231 701 -10 10
-195 -76 -285 -133 -353 -222 -587 -558 -682 -978 -12 -53 -23 -148 -27 -229
-6 -137 -7 -141 -48 -229 l-42 -90 -6 414 c-4 228 -13 504 -21 614 l-15 200
60 115 60 115 117 0 c109 0 123 2 199 33 159 64 255 158 343 337 113 227 142
457 105 808 -20 190 -84 570 -99 584 -2 2 -72 -167 -156 -374 -84 -208 -241
-596 -350 -863 -108 -267 -194 -489 -190 -495 4 -5 -15 -53 -44 -105 l-51 -95
-7 65 c-3 36 -14 133 -24 216 l-17 151 31 99 c234 743 139 1577 -258 2248 -62
104 -166 255 -218 316 -35 39 -40 42 -45 25z"/>
<path d="M4210 6643 c0 -9 -272 -1674 -440 -2698 -165 -1004 -380 -2329 -380
-2345 0 -6 59 -10 163 -10 l163 0 43 293 c24 160 45 302 48 314 l5 23 572 -6
c314 -4 572 -8 574 -9 3 -3 31 -531 32 -592 0 -23 1 -23 151 -23 l152 0 -6 88
c-4 48 -9 157 -12 242 -3 85 -8 184 -11 219 l-6 64 383 -7 c210 -3 385 -8 387
-11 4 -4 -72 -518 -85 -573 l-5 -23 153 3 153 3 53 295 c28 162 52 298 53 303
0 4 262 6 582 5 l583 -3 37 -210 c21 -115 45 -252 54 -302 l16 -93 149 0 149
0 -5 22 c-2 13 -27 174 -55 358 -27 184 -91 603 -141 930 -49 327 -98 649
-108 715 -137 895 -463 3013 -466 3023 -4 9 -306 12 -1470 12 -806 0 -1465 -3
-1465 -7z m724 -1261 c2 -4 14 -88 25 -187 12 -99 24 -191 27 -205 5 -20 25
14 112 185 l107 210 39 3 c21 2 42 0 47 -5 4 -4 17 -85 29 -178 34 -287 16
-283 141 -32 l109 217 45 0 c25 0 45 -4 45 -10 0 -5 -62 -134 -137 -285 l-138
-275 -52 0 c-41 0 -53 4 -57 18 -3 9 -15 99 -27 199 -12 100 -25 180 -28 178
-3 -2 -51 -92 -106 -199 l-100 -196 -55 2 -55 3 -32 260 c-17 143 -32 270 -32
283 -1 20 4 22 43 22 25 0 47 -3 50 -8z m1196 -14 c0 -13 -3 -33 -6 -45 -6
-23 -9 -23 -149 -23 l-144 0 -11 -57 c-6 -32 -14 -66 -16 -75 -5 -17 6 -18
125 -18 l131 0 -6 -32 c-3 -18 -7 -39 -10 -45 -2 -10 -38 -13 -132 -13 l-129
0 -7 -42 c-4 -24 -9 -58 -12 -75 l-6 -33 146 0 146 0 0 -29 c0 -63 7 -61 -211
-61 l-199 0 5 23 c2 12 25 135 51 272 25 138 47 256 49 263 3 9 51 12 195 12
l190 0 0 -22z m-1003 -888 c40 -170 40 -180 9 -180 -20 0 -26 7 -33 38 l-9 37
-71 3 -72 3 -26 -41 c-18 -29 -32 -40 -50 -40 -14 0 -25 3 -25 7 0 4 42 76 93
161 88 146 93 152 122 150 30 -3 30 -3 62 -138z m335 110 c28 -28 30 -36 25
-78 -4 -37 -12 -53 -42 -81 l-38 -34 22 -44 c26 -54 26 -53 -4 -53 -20 0 -31
11 -53 50 -25 47 -29 50 -62 48 -32 -3 -35 -6 -43 -46 -8 -43 -25 -59 -51 -49
-14 5 -5 71 35 265 l10 52 85 0 c82 0 87 -1 116 -30z m319 8 c-7 -21 -17 -24
-87 -28 l-79 -5 -6 -37 -6 -38 69 0 c66 0 68 -1 68 -25 0 -24 -2 -25 -74 -25
l-73 0 -7 -31 c-12 -60 -12 -59 75 -59 78 0 80 -1 77 -22 -3 -22 -8 -23 -102
-26 -55 -1 -105 -1 -112 2 -11 4 0 83 37 264 l10 52 109 0 c109 0 109 0 101
-22z m-1109 -543 c46 -19 95 -76 104 -120 10 -57 0 -137 -25 -188 -78 -161
-327 -182 -402 -34 -42 81 -13 222 58 289 65 62 186 87 265 53z m443 5 c25 -6
52 -22 73 -44 28 -31 32 -43 32 -88 0 -71 -31 -124 -89 -155 -36 -19 -60 -23
-126 -23 l-83 0 -12 -65 -12 -65 -39 0 c-22 0 -39 3 -39 8 0 19 80 424 85 432
8 13 157 13 210 0z m515 -4 c0 -8 -4 -26 -10 -40 -9 -26 -11 -26 -119 -26
l-110 0 -6 -37 c-4 -21 -9 -46 -12 -55 -4 -16 5 -18 96 -18 106 0 107 -1 95
-47 -6 -22 -11 -23 -105 -23 -54 0 -100 -3 -102 -7 -3 -5 -8 -32 -12 -60 l-7
-53 117 0 117 0 -7 -32 c-4 -18 -8 -34 -10 -36 -1 -1 -72 -1 -156 0 l-155 3
42 220 c23 121 43 221 43 223 1 1 69 2 151 2 124 0 150 -3 150 -14z m241 -136
c46 -82 85 -150 89 -150 3 0 14 45 23 101 10 56 22 123 28 151 11 49 11 49 47
46 21 -2 36 -7 36 -13 -1 -5 -19 -106 -40 -223 l-39 -213 -34 3 c-33 3 -37 8
-115 150 -45 81 -84 141 -87 135 -4 -7 -17 -69 -29 -139 -13 -70 -26 -132 -30
-138 -4 -6 -22 -10 -41 -8 l-35 3 42 220 c23 121 43 221 43 223 1 1 14 2 30 2
28 0 35 -9 112 -150z"/>
<path d="M5028 4515 c-55 -88 -55 -85 2 -85 56 0 56 0 37 75 l-13 50 -26 -40z"/>
<path d="M5307 4556 c-3 -7 -9 -34 -12 -60 l-7 -46 49 0 c63 0 93 20 93 64 0
17 -5 37 -12 44 -17 17 -104 16 -111 -2z"/>
<path d="M4529 3990 c-72 -21 -119 -90 -119 -173 0 -89 38 -127 128 -127 93 0
162 76 162 180 0 65 -17 96 -66 116 -36 15 -65 16 -105 4z"/>
<path d="M4965 3978 c-6 -18 -25 -129 -25 -146 0 -11 15 -13 76 -10 69 3 79 6
100 31 30 35 33 96 6 120 -23 21 -150 24 -157 5z"/>
<path d="M8792 2088 c-17 -17 -16 -23 21 -65 24 -28 27 -35 12 -29 -11 5 -42
11 -68 14 -49 5 -49 5 -45 -24 4 -37 38 -54 103 -52 l50 1 -56 6 c-57 6 -89
23 -89 47 0 19 45 18 106 -2 54 -18 77 -33 54 -35 -8 -1 -1 -4 15 -8 l30 -7
-35 -22 c-19 -12 -41 -20 -47 -17 -7 2 -13 0 -13 -6 0 -9 -61 -41 -85 -44 -5
-1 -27 -9 -48 -19 -40 -18 -280 -86 -303 -86 -20 0 -36 -38 -29 -69 6 -29 44
-70 82 -90 15 -8 178 -11 547 -11 464 0 526 2 540 16 9 8 16 22 16 30 0 20
-99 373 -111 395 -18 35 -48 34 -88 -4 -68 -65 -105 -68 -151 -10 -32 41 -58
52 -127 53 -68 0 -93 -15 -93 -55 0 -14 -9 -29 -20 -35 -22 -12 -40 -6 -40 12
0 24 -43 99 -62 109 -16 9 -14 2 10 -27 17 -22 34 -52 38 -69 7 -28 6 -29 -12
-16 -37 28 -86 76 -95 94 -8 14 -5 19 13 27 14 5 17 9 8 9 -9 1 -21 -4 -28
-11z"/>
<path d="M10467 2063 c-14 -13 -6 -38 21 -66 l27 -29 -40 6 c-35 6 -33 4 16
-12 82 -27 91 -36 49 -43 -32 -6 -31 -6 15 -8 l50 -1 -30 -20 c-16 -11 -40
-20 -51 -20 -12 0 -24 -6 -27 -13 -2 -6 -22 -18 -43 -25 -22 -8 -53 -20 -70
-28 -27 -12 -172 -55 -304 -90 -30 -8 -35 -15 -38 -41 -5 -48 23 -92 71 -114
39 -17 73 -19 555 -19 335 0 520 4 533 10 28 15 24 51 -21 218 -57 206 -67
231 -96 238 -19 5 -34 -2 -69 -35 -58 -53 -81 -53 -145 4 l-52 46 -76 -3 -77
-3 -3 -33 c-2 -21 -12 -38 -28 -49 -29 -18 -26 -21 -48 39 -9 25 -29 58 -43
72 -24 25 -62 34 -76 19z m71 -26 c24 -26 56 -97 44 -97 -12 0 -81 55 -98 78
-7 9 -14 23 -14 30 0 20 45 14 68 -11z"/>
<path d="M10393 1983 c-21 -8 -15 -41 11 -58 13 -9 41 -18 62 -21 36 -4 35 -3
-10 10 -65 18 -86 49 -43 66 12 5 15 9 7 9 -8 -1 -21 -3 -27 -6z"/>
</g>
</svg>
